# xmcd
#
# Track frame offsets: 
#        150
#        16107
#        30638
#        47893
#        64112
#        81027
#        96903
#        118859
#        138940
#        155583
#        172596
#        196357
#
# Disc length: 2898 seconds
#
# Revision: 0
# Processed by: cddbd v1.5.2PL0 Copyright (c) Steve Scherf et al.
# Submitted via: ExactAudioCopy v1.0b4
#
DISCID=940b500c
DTITLE=Smokin' Joe Kubek and Bnois King - Fat Man's Shine Parlor
DYEAR=2015
DGENRE=Texas Blues
TTITLE0=Got My Heart Broken
TTITLE1=Cornbread
TTITLE2=Diamond Eyes
TTITLE3=Crash and Burn
TTITLE4=River Of Whiskey
TTITLE5=Don't Want To Be Alone
TTITLE6=Brown Bomba Mojo
TTITLE7=How Much
TTITLE8=One Girl By My Side
TTITLE9=Lone Star Lap Dance
TTITLE10=Done Got Caught Blues
TTITLE11=Headed For Ruin
EXTD=
EXTT0=
EXTT1=
EXTT2=
EXTT3=
EXTT4=
EXTT5=
EXTT6=
EXTT7=
EXTT8=
EXTT9=
EXTT10=
EXTT11=
PLAYORDER=
